<svg xmlns="http://www.w3.org/2000/svg" width="18" height="18" viewBox="0 0 18 18">
    <g transform="translate(-1108 -113)">
        <g data-name="사각형 3862" style="stroke:#7b7b7b;stroke-miterlimit:10;fill:none">
            <path d="M1 0h8a1 1 0 0 1 1 1v4H0V1a1 1 0 0 1 1-1z" style="stroke:none" transform="translate(1112 114)"/>
            <path d="M1 .5h8a.5.5 0 0 1 .5.5v3.5h-9V1A.5.5 0 0 1 1 .5z" style="fill:none" transform="translate(1112 114)"/>
        </g>
        <path data-name="빼기 181" d="M10076 8329h-3a1 1 0 0 1-1-1v-6a1 1 0 0 1 1-1h14a1 1 0 0 1 1 1v6a1 1 0 0 1-1 1h-2v-1h2v-6h-14v6h3v1z" transform="translate(-8963 -8203)" style="fill:#7b7b7b"/>
        <g data-name="사각형 3864" transform="translate(1112 123)" style="stroke:#7b7b7b;stroke-miterlimit:10;fill:none">
            <rect width="10" height="7" rx="1" style="stroke:none"/>
            <rect x=".5" y=".5" width="9" height="6" rx=".5" style="fill:none"/>
        </g>
        <rect data-name="사각형 3865" width="6" height="1" rx=".5" transform="translate(1114 125)" style="fill:#7b7b7b"/>
        <rect data-name="사각형 3866" width="6" height="1" rx=".5" transform="translate(1114 127)" style="fill:#7b7b7b"/>
        <circle data-name="타원 690" cx=".5" cy=".5" r=".5" transform="translate(1120 120)" style="fill:#7b7b7b"/>
        <circle data-name="타원 691" cx=".5" cy=".5" r=".5" transform="translate(1122 120)" style="fill:#7b7b7b"/>
    </g>
</svg>
